# xmcd CD database file
# Copyright (C) 1997 Ti Kan
# 
# Track frame offsets:
#     150
#     15430
#     46307
# 
# Disc length: 1126 seconds
# 
# Revision: 1
# Processed by: cddbd v1.4b41PL1 Copyright (c) Steve Scherf et al.
# Submitted via: DiscPlay 4.0.3
# 
DISCID=17046403
DTITLE=Elton John - the last song elton john
DYEAR=1900
DGENRE=
TTITLE0=The Last Song
TTITLE1=The Man Who Never Died
TTITLE2=Song For Guy
EXTD=
EXTT0=
EXTT1=
EXTT2=
PLAYORDER=
